<?xml version="1.0" encoding="UTF-8" standalone="no"?>
<!-- Created with Inkscape (http://www.inkscape.org/) -->

<svg
   xmlns:dc="http://purl.org/dc/elements/1.1/"
   xmlns:cc="http://creativecommons.org/ns#"
   xmlns:rdf="http://www.w3.org/1999/02/22-rdf-syntax-ns#"
   xmlns:svg="http://www.w3.org/2000/svg"
   xmlns="http://www.w3.org/2000/svg"
   xmlns:sodipodi="http://sodipodi.sourceforge.net/DTD/sodipodi-0.dtd"
   xmlns:inkscape="http://www.inkscape.org/namespaces/inkscape"
   width="1417.3228"
   height="1594.4882"
   id="svg4153"
   version="1.1"
   inkscape:version="0.48.4 r9939"
   sodipodi:docname="sayarobot_onder.svg">
  <defs
     id="defs4155">
    <inkscape:perspective
       sodipodi:type="inkscape:persp3d"
       inkscape:vp_x="0 : 797.24408 : 1"
       inkscape:vp_y="0 : 1000 : 0"
       inkscape:vp_z="1417.3228 : 797.24408 : 1"
       inkscape:persp3d-origin="708.66138 : 531.49605 : 1"
       id="perspective5724" />
  </defs>
  <sodipodi:namedview
     id="base"
     pagecolor="#ffffff"
     bordercolor="#666666"
     borderopacity="1.0"
     inkscape:pageopacity="0.0"
     inkscape:pageshadow="2"
     inkscape:zoom="1.0060782"
     inkscape:cx="867.68646"
     inkscape:cy="342.81157"
     inkscape:document-units="px"
     inkscape:current-layer="layer1"
     showgrid="true"
     units="cm"
     inkscape:showpageshadow="false"
     inkscape:window-width="910"
     inkscape:window-height="943"
     inkscape:window-x="27"
     inkscape:window-y="0"
     inkscape:window-maximized="0">
    <inkscape:grid
       type="xygrid"
       id="grid4226"
       empspacing="10"
       visible="true"
       enabled="true"
       snapvisiblegridlinesonly="true"
       units="mm"
       spacingx="1mm"
       spacingy="1mm" />
  </sodipodi:namedview>
  <metadata
     id="metadata4158">
    <rdf:RDF>
      <cc:Work
         rdf:about="">
        <dc:format>image/svg+xml</dc:format>
        <dc:type
           rdf:resource="http://purl.org/dc/dcmitype/StillImage" />
        <dc:title />
      </cc:Work>
    </rdf:RDF>
  </metadata>
  <g
     inkscape:label="Laag 1"
     inkscape:groupmode="layer"
     id="layer1"
     transform="translate(0,542.12683)">
    <path
       sodipodi:nodetypes="ccccc"
       style="fill:none;stroke:#ff0000;stroke-width:1;stroke-linecap:butt;stroke-linejoin:miter;stroke-miterlimit:4;stroke-opacity:1;stroke-dasharray:none"
       d="m 814.96063,414.74029 354.33077,0 0,318.89764 -354.33077,0 z"
       id="path3194"
       inkscape:connector-curvature="0" />
    <path
       style="fill:none;stroke:#ff0000;stroke-width:1;stroke-linecap:butt;stroke-linejoin:miter;stroke-miterlimit:4;stroke-opacity:1;stroke-dasharray:none"
       d="m 1134.1798,711.35732 -70.8662,0 c 0,7.0866 0,10.6299 0,10.6299 l 70.8662,0 z"
       id="path4273-3"
       inkscape:connector-curvature="0" />
    <path
       style="fill:none;stroke:#ff0000;stroke-width:1;stroke-linecap:butt;stroke-linejoin:miter;stroke-miterlimit:4;stroke-opacity:1;stroke-dasharray:none"
       d="m 956.69291,424.36398 -70.86614,0 c 0,7.0866 0,10.62992 0,10.62992 l 70.86614,0 z"
       id="path4273-3-8"
       inkscape:connector-curvature="0"
       sodipodi:nodetypes="ccccc" />
    <path
       style="fill:none;stroke:#ff0000;stroke-width:1;stroke-linecap:butt;stroke-linejoin:miter;stroke-miterlimit:4;stroke-opacity:1;stroke-dasharray:none"
       d="m 1134.7049,423.6072 -70.8662,0 c 0,7.0866 0,10.6299 0,10.6299 l 70.8662,0 z"
       id="path4273-3-2"
       inkscape:connector-curvature="0" />
    <path
       style="fill:none;stroke:#ff0000;stroke-width:1;stroke-linecap:butt;stroke-linejoin:miter;stroke-miterlimit:4;stroke-opacity:1;stroke-dasharray:none"
       d="m 957.38111,710.84519 -70.8662,0 c 0,7.0866 0,10.6299 0,10.6299 l 70.8662,0 z"
       id="path4273-3-80"
       inkscape:connector-curvature="0" />
    <path
       style="fill:none;stroke:#ff0000;stroke-width:0.88582677;stroke-linecap:butt;stroke-linejoin:miter;stroke-miterlimit:4;stroke-opacity:1;stroke-dasharray:none"
       d="m 1081.838,741.36582 17.7165,0 0,21.25984 21.2599,0 0,120.47244 -53.1496,0 0,-120.47244 14.1732,0 z"
       id="path3973"
       inkscape:connector-curvature="0" />
    <path
       style="fill:none;stroke:#ff0000;stroke-width:0.88582677;stroke-linecap:butt;stroke-linejoin:miter;stroke-miterlimit:4;stroke-opacity:1;stroke-dasharray:none"
       d="m 1139.2766,742.0402 17.7165,0 0,21.25981 21.2599,0 0,120.4725 -53.1497,0 0,-120.4725 14.1733,0 z"
       id="path3973-6"
       inkscape:connector-curvature="0" />
    <path
       style="fill:none;stroke:#ff0000;stroke-width:0.99999994px;stroke-linecap:butt;stroke-linejoin:miter;stroke-opacity:1"
       d="m 588.89764,749.52668 35.4331,0.44413 0,201.52438 -35.4331,0 -4e-5,10.62992 -70.8661,0 4e-5,-10.62992 -35.43311,0 0,-201.52438 35.43307,-0.44413 0,-10.62992 70.86614,0 0,10.62992"
       id="path4267-0-5-3"
       inkscape:connector-curvature="0"
       sodipodi:nodetypes="cccccccccc" />
    <path
       style="fill:none;stroke:#000000;stroke-width:1px;stroke-linecap:butt;stroke-linejoin:miter;stroke-opacity:1"
       d="m 1104.5867,-245.25886 0,0"
       id="path3178"
       inkscape:connector-type="polyline"
       inkscape:connector-curvature="0" />
    <flowRoot
       xml:space="preserve"
       id="flowRoot3210"
       style="font-size:16px;font-style:normal;font-variant:normal;font-weight:normal;font-stretch:normal;text-align:start;line-height:125%;letter-spacing:0px;word-spacing:0px;writing-mode:lr-tb;text-anchor:start;fill:#000000;fill-opacity:1;stroke:none;font-family:Sans;-inkscape-font-specification:Sans"
       transform="translate(673.22835,-531.49692)"><flowRegion
         id="flowRegion3212"><rect
           id="rect3214"
           width="342.70493"
           height="130.99532"
           x="738.33722"
           y="689.80951" /></flowRegion><flowPara
         id="flowPara3216"
         style="font-size:24px" /></flowRoot>    <flowRoot
       xml:space="preserve"
       id="flowRoot3232"
       style="font-size:32px;font-style:normal;font-variant:normal;font-weight:normal;font-stretch:normal;text-align:start;line-height:125%;letter-spacing:0px;word-spacing:0px;writing-mode:lr-tb;text-anchor:start;fill:#000000;fill-opacity:1;stroke:none;font-family:Sans;-inkscape-font-specification:Sans"
       transform="translate(673.22835,-531.49692)"><flowRegion
         id="flowRegion3234"><rect
           id="rect3236"
           width="534.56677"
           height="166.72131"
           x="837.57611"
           y="673.93127"
           style="font-size:32px" /></flowRegion><flowPara
         id="flowPara3238" /></flowRoot>    <text
       xml:space="preserve"
       style="font-size:16px;font-style:normal;font-variant:normal;font-weight:normal;font-stretch:normal;text-align:start;line-height:125%;letter-spacing:0px;word-spacing:0px;writing-mode:lr-tb;text-anchor:start;fill:#000000;fill-opacity:1;stroke:none;font-family:Sans;-inkscape-font-specification:Sans"
       x="1669.5867"
       y="196.68491"
       id="text3256"
       sodipodi:linespacing="125%"><tspan
         sodipodi:role="line"
         id="tspan3258"
         x="1669.5867"
         y="196.68491" /></text>
    <flowRoot
       xml:space="preserve"
       id="flowRoot3260"
       style="font-size:40px;font-style:normal;font-variant:normal;font-weight:normal;font-stretch:normal;text-align:start;line-height:125%;letter-spacing:0px;word-spacing:0px;writing-mode:lr-tb;text-anchor:start;fill:#000000;fill-opacity:1;stroke:none;font-family:Sans;-inkscape-font-specification:Sans"
       transform="translate(673.22835,-531.49692)"><flowRegion
         id="flowRegion3262"><rect
           id="rect3264"
           width="563.67682"
           height="148.19672"
           x="823.02106"
           y="648.79077"
           style="font-size:40px" /></flowRegion><flowPara
         id="flowPara3266" /></flowRoot>    <flowRoot
       xml:space="preserve"
       id="flowRoot3268"
       style="font-size:16px;font-style:normal;font-variant:normal;font-weight:normal;font-stretch:normal;text-align:start;line-height:125%;letter-spacing:0px;word-spacing:0px;writing-mode:lr-tb;text-anchor:start;fill:#000000;fill-opacity:1;stroke:none;font-family:Sans;-inkscape-font-specification:Sans"
       transform="translate(673.22835,-531.49692)"><flowRegion
         id="flowRegion3270"><rect
           id="rect3272"
           width="7.9391103"
           height="26.463699"
           x="894.47308"
           y="681.87036" /></flowRegion><flowPara
         id="flowPara3274" /></flowRoot>    <g
       id="g6105"
       transform="translate(40,377.76383)">
      <flowRoot
         transform="matrix(0,1,-1,0,1079.1926,-776.61726)"
         style="font-size:16px;font-style:normal;font-variant:normal;font-weight:normal;font-stretch:normal;text-align:start;line-height:125%;letter-spacing:0px;word-spacing:0px;writing-mode:lr-tb;text-anchor:start;fill:none;stroke:#0000ff;stroke-opacity:1;font-family:Sans;-inkscape-font-specification:Sans"
         id="flowRoot3240"
         xml:space="preserve"><flowRegion
           id="flowRegion3242"><rect
             style="fill:none;stroke:#0000ff;stroke-opacity:1"
             y="570.72284"
             x="907.7049"
             height="183.92271"
             width="300.36301"
             id="rect3244" /></flowRegion><flowPara
           style="font-size:48px;fill:none;stroke:#0000ff;stroke-opacity:1"
           id="flowPara3246">Saya</flowPara></flowRoot>      <flowRoot
         transform="matrix(0,-1,1,0,1.1567785,1093.4944)"
         style="font-size:48px;font-style:normal;font-variant:normal;font-weight:normal;font-stretch:normal;text-align:start;line-height:125%;letter-spacing:0px;word-spacing:0px;writing-mode:lr-tb;text-anchor:start;fill:none;stroke:#0000ff;stroke-width:0.08858268;stroke-miterlimit:4;stroke-opacity:1;stroke-dasharray:none;font-family:Sans;-inkscape-font-specification:Sans"
         id="flowRoot3276"
         xml:space="preserve"><flowRegion
           id="flowRegion3278"><rect
             style="font-size:48px;fill:none;stroke:#0000ff;stroke-width:0.08858268;stroke-miterlimit:4;stroke-opacity:1;stroke-dasharray:none"
             y="695.10223"
             x="856.10071"
             height="103.20843"
             width="394.30914"
             id="rect3280" /></flowRegion><flowPara
           id="flowPara3282">stem</flowPara></flowRoot>      <path
         transform="translate(372.05893,-276.04958)"
         d="m 283.40939,414.885 c -0.62177,1.74748 -2.79502,0.1579 -3.17224,-0.87793 -1.01564,-2.78898 1.73604,-5.26518 4.29189,-5.5769 4.43012,-0.54032 7.85586,3.5451 7.98157,7.70584 0.18198,6.02357 -5.36665,10.4901 -11.11981,10.38624 -7.60959,-0.13739 -13.14204,-7.19164 -12.7909,-14.53377 0.43972,-9.19401 9.01805,-15.80301 17.94773,-15.19556 10.77806,0.73318 18.46919,10.8452 17.60023,21.36168 -1.02147,12.36208 -12.67282,21.13868 -24.77565,20.0049 -13.94616,-1.30647 -23.81037,-14.50076 -22.40955,-28.18961 1.58925,-15.53032 16.32891,-26.48362 31.60356,-24.81422 17.11456,1.87048 29.15801,18.15724 27.21889,35.01752 -1.88377,16.37896 -16.00449,28.96119 -32.32056,29.82678"
         sodipodi:t0="0.0091116102"
         sodipodi:argument="-17.278759"
         sodipodi:radius="35.433071"
         sodipodi:revolution="3"
         sodipodi:expansion="1"
         sodipodi:cy="414.56689"
         sodipodi:cx="283.46457"
         id="path3294"
         style="fill:none;stroke:#0000ff;stroke-width:0.08858268;stroke-linecap:butt;stroke-linejoin:miter;stroke-miterlimit:4;stroke-opacity:1;stroke-dasharray:none"
         sodipodi:type="spiral" />
      <path
         transform="translate(79.835134,-431.10711)"
         inkscape:transform-center-y="3.3835572"
         d="m 460.62991,591.73227 -10.41352,-21.1001 -23.28533,-3.38355 16.84943,-16.42414 -3.97761,-23.19124 20.82703,10.94942 20.82704,-10.94942 -3.97761,23.19124 16.84943,16.42413 -23.28534,3.38356 z"
         inkscape:randomized="0"
         inkscape:rounded="0"
         inkscape:flatsided="false"
         sodipodi:arg2="2.1991149"
         sodipodi:arg1="1.5707963"
         sodipodi:r2="17.716537"
         sodipodi:r1="35.433071"
         sodipodi:cy="556.29919"
         sodipodi:cx="460.62991"
         sodipodi:sides="5"
         id="path3306"
         style="fill:none;stroke:#ff0000;stroke-width:0.08858268;stroke-miterlimit:4;stroke-opacity:1;stroke-dasharray:none;stroke-dashoffset:0"
         sodipodi:type="star" />
      <g
         transform="translate(-716.64407,-445.29341)"
         id="g5982">
        <path
           sodipodi:nodetypes="ccccc"
           style="fill:none;stroke:#ff0000;stroke-width:1;stroke-linecap:butt;stroke-linejoin:miter;stroke-miterlimit:4;stroke-opacity:1;stroke-dasharray:none"
           d="m 1157.8583,483.60643 322.3307,0 0,318.89764 -322.3307,0 z"
           id="path3194-3"
           inkscape:connector-curvature="0" />
        <path
           style="fill:none;stroke:#ff0000;stroke-width:1;stroke-linecap:butt;stroke-linejoin:miter;stroke-miterlimit:4;stroke-opacity:1;stroke-dasharray:none"
           d="m 1453.0774,780.22346 -70.8662,0 c 0,7.0866 0,10.6299 0,10.6299 l 70.8662,0 z"
           id="path4273-3-0"
           inkscape:connector-curvature="0" />
        <path
           style="fill:none;stroke:#ff0000;stroke-width:1;stroke-linecap:butt;stroke-linejoin:miter;stroke-miterlimit:4;stroke-opacity:1;stroke-dasharray:none"
           d="m 1275.5905,493.23012 -70.8661,0 c 0,7.0866 0,10.62992 0,10.62992 l 70.8661,0 z"
           id="path4273-3-8-9"
           inkscape:connector-curvature="0"
           sodipodi:nodetypes="ccccc" />
        <path
           style="fill:none;stroke:#ff0000;stroke-width:1;stroke-linecap:butt;stroke-linejoin:miter;stroke-miterlimit:4;stroke-opacity:1;stroke-dasharray:none"
           d="m 1453.6025,492.47334 -70.8662,0 c 0,7.0866 0,10.6299 0,10.6299 l 70.8662,0 z"
           id="path4273-3-2-3"
           inkscape:connector-curvature="0" />
        <path
           style="fill:none;stroke:#ff0000;stroke-width:1;stroke-linecap:butt;stroke-linejoin:miter;stroke-miterlimit:4;stroke-opacity:1;stroke-dasharray:none"
           d="m 1276.2787,779.71133 -70.8662,0 c 0,7.0866 0,10.6299 0,10.6299 l 70.8662,0 z"
           id="path4273-3-80-3"
           inkscape:connector-curvature="0" />
      </g>
      <path
         sodipodi:type="star"
         style="fill:none;stroke:#ff0000;stroke-width:0.08858268;stroke-miterlimit:4;stroke-opacity:1;stroke-dasharray:none;stroke-dashoffset:0"
         id="path3298-2"
         sodipodi:sides="5"
         sodipodi:cx="177.16534"
         sodipodi:cy="556.29919"
         sodipodi:r1="35.433071"
         sodipodi:r2="17.716537"
         sodipodi:arg1="1.5707963"
         sodipodi:arg2="2.1991149"
         inkscape:flatsided="false"
         inkscape:rounded="0"
         inkscape:randomized="0"
         d="m 177.16535,591.73227 -10.41353,-21.1001 -23.28533,-3.38355 16.84943,-16.42414 -3.97761,-23.19124 20.82703,10.94942 20.82704,-10.94942 -3.97761,23.19124 16.84943,16.42413 -23.28534,3.38356 z"
         inkscape:transform-center-y="3.3835572"
         transform="translate(502.26748,-300.25402)" />
      <path
         transform="translate(269.6812,-283.00729)"
         inkscape:transform-center-y="3.3835572"
         d="m 248.0315,591.73227 -10.41353,-21.1001 -23.28533,-3.38355 16.84943,-16.42414 -3.97761,-23.19124 20.82703,10.94942 20.82704,-10.94942 -3.97761,23.19124 16.84943,16.42413 -23.28534,3.38356 z"
         inkscape:randomized="0"
         inkscape:rounded="0"
         inkscape:flatsided="false"
         sodipodi:arg2="2.1991149"
         sodipodi:arg1="1.5707963"
         sodipodi:r2="17.716537"
         sodipodi:r1="35.433071"
         sodipodi:cy="556.29919"
         sodipodi:cx="248.03149"
         sodipodi:sides="5"
         id="path3300-8"
         style="fill:none;stroke:#0000ff;stroke-width:0.08858268;stroke-miterlimit:4;stroke-opacity:1;stroke-dasharray:none;stroke-dashoffset:0"
         sodipodi:type="star" />
    </g>
    <path
       style="fill:none;stroke:#ff0000;stroke-width:0.99999994px;stroke-linecap:butt;stroke-linejoin:miter;stroke-opacity:1"
       d="m 735.22611,749.7976 35.4331,0.44413 0,201.52435 -35.4331,0 -4e-5,10.63 -70.8661,0 4e-5,-10.63 -35.43311,0 0,-201.52435 35.43307,-0.44413 0,-10.62992 70.86614,0 0,10.62992"
       id="path4267-0-5-3-9"
       inkscape:connector-curvature="0"
       sodipodi:nodetypes="cccccccccc" />
    <path
       style="fill:none;stroke:#ff0000;stroke-width:0.99999994px;stroke-linecap:butt;stroke-linejoin:miter;stroke-opacity:1"
       d="m 880.94632,750.14704 35.4331,0.44413 0,201.52438 -35.4331,0 -4e-5,10.62992 -70.8661,0 4e-5,-10.62992 -35.43311,0 0,-201.52438 35.43307,-0.44413 0,-10.62992 70.86614,0 0,10.62992"
       id="path4267-0-5-3-3"
       inkscape:connector-curvature="0"
       sodipodi:nodetypes="cccccccccc" />
    <path
       style="fill:none;stroke:#ff0000;stroke-width:0.99999994px;stroke-linecap:butt;stroke-linejoin:miter;stroke-opacity:1"
       d="m 1026.305,749.80968 35.4331,0.44413 0,201.52435 -35.4331,0 0,10.63 -70.86613,0 0,-10.63 -35.43308,0 0,-201.52435 35.43308,-0.44413 0,-10.62992 70.86613,0 0,10.62992"
       id="path4267-0-5-3-1"
       inkscape:connector-curvature="0"
       sodipodi:nodetypes="cccccccccc" />
    <path
       style="fill:none;stroke:#ff0000;stroke-width:1.25;stroke-linecap:butt;stroke-linejoin:miter;stroke-miterlimit:4;stroke-opacity:1;stroke-dasharray:none"
       d="m 1119.5391,637.33067 0,-10.62992 24.8031,0 0,10.62992 z"
       id="path3852"
       inkscape:connector-curvature="0" />
    <path
       style="fill:none;stroke:#ff0000;stroke-width:1.25;stroke-linecap:butt;stroke-linejoin:miter;stroke-miterlimit:4;stroke-opacity:1;stroke-dasharray:none"
       d="m 1119.5391,520.40153 0,-10.62992 24.8031,0 0,10.62992 z"
       id="path3854"
       inkscape:connector-curvature="0"
       sodipodi:nodetypes="ccccc" />
    <path
       sodipodi:type="arc"
       style="fill:none;stroke:#ff0000;stroke-width:0.49374273;stroke-miterlimit:4;stroke-opacity:1;stroke-dasharray:none;stroke-dashoffset:0"
       id="path3856-9-5"
       sodipodi:cx="200.19685"
       sodipodi:cy="426.96848"
       sodipodi:rx="5.3149605"
       sodipodi:ry="5.3149605"
       d="m 200.09345,421.65452 a 5.3149605,5.3149605 0 1 1 -0.01,2e-4"
       sodipodi:start="4.6929319"
       sodipodi:end="10.974263"
       sodipodi:open="true"
       transform="matrix(2.4519728,0,0,2.6139841,639.66943,-542.08986)" />
    <path
       style="fill:none;stroke:#ff0000;stroke-width:1.25;stroke-linecap:butt;stroke-linejoin:miter;stroke-miterlimit:4;stroke-opacity:1;stroke-dasharray:none"
       d="m 1068.1011,897.26835 0,30.11811 0,30.1181 5.3149,0 5.315,0 0,5.315 0,5.3149 7.0866,0 7.0866,0 0,-5.3149 0,-5.315 5.315,0 5.3149,0 0,-30.1181 0,-30.11811 -5.3149,0 -5.315,0 0,-5.315 0,-5.3149 -7.0866,0 -7.0866,0 0,10.6299 z"
       id="path3916"
       inkscape:connector-curvature="0"
       sodipodi:nodetypes="ccccccccccccccccccccccc" />
    <g
       id="g3948"
       transform="matrix(-1,0,0,-1,1475.061,1459.8736)"
       style="stroke:#ff0000;stroke-width:1.25;stroke-miterlimit:4;stroke-opacity:1;stroke-dasharray:none">
      <path
         inkscape:connector-curvature="0"
         id="path3918"
         d="m 266.10111,542.16427 10.62992,0 0,10.62992 -14.17323,0 0,-10.62992 z"
         style="fill:none;stroke:#ff0000;stroke-width:1.25;stroke-linecap:butt;stroke-linejoin:miter;stroke-miterlimit:4;stroke-opacity:1;stroke-dasharray:none"
         sodipodi:nodetypes="cccccc" />
      <path
         inkscape:connector-curvature="0"
         id="path3920"
         d="m 276.73103,701.61309 0,10.62992 -10.62992,0 -3.54331,0 0,-10.62992 z"
         style="fill:none;stroke:#ff0000;stroke-width:1.25;stroke-linecap:butt;stroke-linejoin:miter;stroke-miterlimit:4;stroke-opacity:1;stroke-dasharray:none"
         sodipodi:nodetypes="cccccc" />
      <path
         inkscape:connector-curvature="0"
         id="path3922"
         d="m 287.36095,722.87293 -35.43307,0 0,-191.33858 35.43307,0 z"
         style="fill:none;stroke:#ff0000;stroke-width:1.25;stroke-linecap:butt;stroke-linejoin:miter;stroke-miterlimit:4;stroke-opacity:1;stroke-dasharray:none"
         sodipodi:nodetypes="ccccc" />
    </g>
    <path
       style="fill:none;stroke:#ff0000;stroke-width:1.25;stroke-linecap:butt;stroke-linejoin:miter;stroke-miterlimit:4;stroke-opacity:1;stroke-dasharray:none"
       d="m 1106.8369,896.35364 0,30.1181 0,30.1181 5.315,0 5.315,0 0,5.315 0,5.315 7.0866,0 7.0866,0 0,-5.315 0,-5.315 5.3149,0 5.315,0 0,-30.1181 0,-30.1181 -5.315,0 -5.3149,0 0,-5.3149 0,-5.315 -7.0866,0 -7.0866,0 0,10.6299 z"
       id="path3916-9"
       inkscape:connector-curvature="0"
       sodipodi:nodetypes="ccccccccccccccccccccccc" />
    <g
       id="g6511"
       transform="translate(-55.661675,-9.9516675)">
      <path
         inkscape:connector-curvature="0"
         id="path3833-9"
         d="m 885.09062,510.36424 0,-10.62992 17.71654,0 0,10.62992 z"
         style="fill:none;stroke:#ff0000;stroke-width:1.25;stroke-linecap:butt;stroke-linejoin:miter;stroke-miterlimit:4;stroke-opacity:1;stroke-dasharray:none" />
      <path
         inkscape:connector-curvature="0"
         id="path3846-5"
         d="m 885.09062,659.18314 0,10.62992 17.71654,0 0,-10.62992 z"
         style="fill:none;stroke:#ff0000;stroke-width:1.25;stroke-linecap:butt;stroke-linejoin:miter;stroke-miterlimit:4;stroke-opacity:1;stroke-dasharray:none" />
      <path
         transform="translate(688.47913,33.886058)"
         sodipodi:open="true"
         sodipodi:end="10.974263"
         sodipodi:start="4.6929319"
         d="m 200.09345,421.65452 c 2.93481,-0.0571 5.36025,2.27573 5.41736,5.21055 0.0571,2.93481 -2.27573,5.36025 -5.21055,5.41736 -2.93482,0.0571 -5.36025,-2.27573 -5.41736,-5.21055 -0.057,-2.93097 2.26984,-5.35469 5.20069,-5.41716"
         sodipodi:ry="5.3149605"
         sodipodi:rx="5.3149605"
         sodipodi:cy="426.96848"
         sodipodi:cx="200.19685"
         id="path3856-16"
         style="fill:none;stroke:#ff0000;stroke-width:1.25;stroke-miterlimit:4;stroke-opacity:1;stroke-dasharray:none;stroke-dashoffset:0"
         sodipodi:type="arc" />
      <path
         transform="translate(688.73354,281.93438)"
         sodipodi:open="true"
         sodipodi:end="10.974263"
         sodipodi:start="4.6929319"
         d="m 200.09345,421.65452 c 2.93481,-0.0571 5.36025,2.27573 5.41736,5.21055 0.0571,2.93481 -2.27573,5.36025 -5.21055,5.41736 -2.93482,0.0571 -5.36025,-2.27573 -5.41736,-5.21055 -0.057,-2.93097 2.26984,-5.35469 5.20069,-5.41716"
         sodipodi:ry="5.3149605"
         sodipodi:rx="5.3149605"
         sodipodi:cy="426.96848"
         sodipodi:cx="200.19685"
         id="path3856-1-0"
         style="fill:none;stroke:#ff0000;stroke-width:1.25;stroke-miterlimit:4;stroke-opacity:1;stroke-dasharray:none;stroke-dashoffset:0"
         sodipodi:type="arc" />
    </g>
  </g>
</svg>
